<?xml version="1.0" encoding="UTF-8" standalone="no"?>
<!-- Created with Inkscape (http://www.inkscape.org/) -->

<svg
   xmlns:dc="http://purl.org/dc/elements/1.1/"
   xmlns:cc="http://creativecommons.org/ns#"
   xmlns:rdf="http://www.w3.org/1999/02/22-rdf-syntax-ns#"
   xmlns:svg="http://www.w3.org/2000/svg"
   xmlns="http://www.w3.org/2000/svg"
   xmlns:sodipodi="http://sodipodi.sourceforge.net/DTD/sodipodi-0.dtd"
   xmlns:inkscape="http://www.inkscape.org/namespaces/inkscape"
   width="650mm"
   height="400mm"
   viewBox="0 0 2303.1496 1417.3228"
   id="svg2"
   version="1.1"
   inkscape:version="0.91 r"
   sodipodi:docname="mote_light_painting_stick.svg">
  <defs
     id="defs4" />
  <sodipodi:namedview
     id="base"
     pagecolor="#ffffff"
     bordercolor="#666666"
     borderopacity="1.0"
     inkscape:pageopacity="0.0"
     inkscape:pageshadow="2"
     inkscape:zoom="0.35348333"
     inkscape:cx="1151.5748"
     inkscape:cy="708.66142"
     inkscape:document-units="mm"
     inkscape:current-layer="layer1"
     showgrid="false"
     inkscape:window-width="1024"
     inkscape:window-height="716"
     inkscape:window-x="0"
     inkscape:window-y="0"
     inkscape:window-maximized="1" />
  <metadata
     id="metadata7">
    <rdf:RDF>
      <cc:Work
         rdf:about="">
        <dc:format>image/svg+xml</dc:format>
        <dc:type
           rdf:resource="http://purl.org/dc/dcmitype/StillImage" />
        <dc:title></dc:title>
      </cc:Work>
    </rdf:RDF>
  </metadata>
  <g
     inkscape:label="Layer 1"
     inkscape:groupmode="layer"
     id="layer1"
     transform="translate(0,364.96063)">
    <path
       transform="matrix(0.35115956,0.93631563,-0.93631563,0.35115956,0,0)"
       style="opacity:0.5;fill:#cccccc;stroke:#00ff00;stroke-width:0.70866144;stroke-miterlimit:4;stroke-dasharray:none;stroke-opacity:1"
       d="m 451.88889,-2213.4917 141.73228,0 0,2374.01587 -141.73228,0 z"
       id="rect4451" />
    <path
       transform="matrix(0.35115956,0.93631563,-0.93631563,0.35115956,0,0)"
       style="fill:#cccccc;stroke:none;stroke-width:0.70866144;stroke-miterlimit:4;stroke-dasharray:none;stroke-opacity:1"
       d="m 488.11938,-506.44852 35.43308,0 0,602.362186 -35.43308,0 z"
       id="rect4153" />
    <path
       transform="matrix(0.35115956,0.93631563,-0.93631563,0.35115956,0,0)"
       style="fill:#0000ff;stroke:#ff00ff;stroke-width:0.11180674;stroke-miterlimit:4;stroke-dasharray:none;stroke-opacity:1"
       d="m 511.09496,-501.13354 a 5.259057,5.259057 0 0 1 -5.25905,5.25905 5.259057,5.259057 0 0 1 -5.25906,-5.25905 5.259057,5.259057 0 0 1 5.25906,-5.25906 5.259057,5.259057 0 0 1 5.25905,5.25906 z"
       id="path4136" />
    <path
       transform="matrix(0.35115956,0.93631563,-0.93631563,0.35115956,0,0)"
       style="fill:#0000ff;stroke:#ff00ff;stroke-width:0.11180674;stroke-miterlimit:4;stroke-dasharray:none;stroke-opacity:1"
       d="m 511.09496,90.598701 a 5.259057,5.259057 0 0 1 -5.25905,5.259058 5.259057,5.259057 0 0 1 -5.25906,-5.259058 5.259057,5.259057 0 0 1 5.25906,-5.259057 5.259057,5.259057 0 0 1 5.25905,5.259057 z"
       id="path4136-3" />
    <path
       transform="matrix(0.35115956,0.93631563,-0.93631563,0.35115956,0,0)"
       style="fill:#cccccc;stroke:none;stroke-width:0.70866144;stroke-miterlimit:4;stroke-dasharray:none;stroke-opacity:1"
       d="m 526.82483,-1067.7716 35.43307,0 0,602.36218 -35.43307,0 z"
       id="rect4153-1" />
    <path
       transform="matrix(0.35115956,0.93631563,-0.93631563,0.35115956,0,0)"
       style="fill:#0000ff;stroke:#ff00ff;stroke-width:0.11180674;stroke-miterlimit:4;stroke-dasharray:none;stroke-opacity:1"
       d="m 549.80044,-1062.4567 a 5.259057,5.259057 0 0 1 -5.25906,5.2591 5.259057,5.259057 0 0 1 -5.25906,-5.2591 5.259057,5.259057 0 0 1 5.25906,-5.259 5.259057,5.259057 0 0 1 5.25906,5.259 z"
       id="path4136-9" />
    <path
       transform="matrix(0.35115956,0.93631563,-0.93631563,0.35115956,0,0)"
       style="fill:#0000ff;stroke:#ff00ff;stroke-width:0.11180674;stroke-miterlimit:4;stroke-dasharray:none;stroke-opacity:1"
       d="m 549.80044,-470.72443 a 5.259057,5.259057 0 0 1 -5.25906,5.25906 5.259057,5.259057 0 0 1 -5.25906,-5.25906 5.259057,5.259057 0 0 1 5.25906,-5.25905 5.259057,5.259057 0 0 1 5.25906,5.25905 z"
       id="path4136-3-4" />
    <path
       transform="matrix(0.35115956,0.93631563,-0.93631563,0.35115956,0,0)"
       style="fill:#cccccc;stroke:none;stroke-width:0.70866144;stroke-miterlimit:4;stroke-dasharray:none;stroke-opacity:1"
       d="m 490.00195,-1631.3895 35.43307,0 0,602.3622 -35.43307,0 z"
       id="rect4153-5" />
    <path
       transform="matrix(0.35115956,0.93631563,-0.93631563,0.35115956,0,0)"
       style="fill:#0000ff;stroke:#ff00ff;stroke-width:0.11180674;stroke-miterlimit:4;stroke-dasharray:none;stroke-opacity:1"
       d="m 512.97756,-1626.0746 a 5.259057,5.259057 0 0 1 -5.25905,5.2591 5.259057,5.259057 0 0 1 -5.25906,-5.2591 5.259057,5.259057 0 0 1 5.25906,-5.259 5.259057,5.259057 0 0 1 5.25905,5.259 z"
       id="path4136-0" />
    <path
       transform="matrix(0.35115956,0.93631563,-0.93631563,0.35115956,0,0)"
       style="fill:#0000ff;stroke:#ff00ff;stroke-width:0.11180674;stroke-miterlimit:4;stroke-dasharray:none;stroke-opacity:1"
       d="m 512.97756,-1034.3424 a 5.259057,5.259057 0 0 1 -5.25905,5.259 5.259057,5.259057 0 0 1 -5.25906,-5.259 5.259057,5.259057 0 0 1 5.25906,-5.2591 5.259057,5.259057 0 0 1 5.25905,5.2591 z"
       id="path4136-3-3" />
    <path
       transform="matrix(0.35115956,0.93631563,-0.93631563,0.35115956,0,0)"
       style="fill:#cccccc;stroke:none;stroke-width:0.70866144;stroke-miterlimit:4;stroke-dasharray:none;stroke-opacity:1"
       d="m 528.7074,-2192.7126 35.43307,0 0,602.3621 -35.43307,0 z"
       id="rect4153-1-6" />
    <path
       transform="matrix(0.35115956,0.93631563,-0.93631563,0.35115956,0,0)"
       style="fill:#0000ff;stroke:#ff00ff;stroke-width:0.11180674;stroke-miterlimit:4;stroke-dasharray:none;stroke-opacity:1"
       d="m 551.68301,-2187.3977 a 5.259057,5.259057 0 0 1 -5.25906,5.2591 5.259057,5.259057 0 0 1 -5.25906,-5.2591 5.259057,5.259057 0 0 1 5.25906,-5.2591 5.259057,5.259057 0 0 1 5.25906,5.2591 z"
       id="path4136-9-3" />
    <path
       transform="matrix(0.35115956,0.93631563,-0.93631563,0.35115956,0,0)"
       style="fill:#0000ff;stroke:#ff00ff;stroke-width:0.11180674;stroke-miterlimit:4;stroke-dasharray:none;stroke-opacity:1"
       d="m 551.68301,-1595.6655 a 5.259057,5.259057 0 0 1 -5.25906,5.259 5.259057,5.259057 0 0 1 -5.25906,-5.259 5.259057,5.259057 0 0 1 5.25906,-5.2591 5.259057,5.259057 0 0 1 5.25906,5.2591 z"
       id="path4136-3-4-2" />
  </g>
</svg>
